PathFileType	4	(X/Y/Z)	F:\MotionCapture\20160217\3\Generated_files\EMG_Fprce_test04-Dynamic.trc
DataRate	CameraRate	NumFrames	NumMarkers	Units	OrigDataRate	OrigDataStartFrame	OrigNumFrames
120.00	120.00	       9	39	mm	120.00	213	       566
Frame#	Time	Top.Head			Front.Head			Rear.Head			R.Shoulder			R.Offset			R.Elbow			R.Wrist			L.Shoulder			L.Elbow			L.Wrist			R.ASIS			L.ASIS			V.Sacral			R.Thigh			R.Knee			R.Shank			R.Ankle			R.Heel			R.Toe			L.Thigh			L.Knee			L.Shank			L.Ankle			L.Heel			L.Toe			R1			R2			R3			R4			R5			R6			R7			L1			L2			L3			L4			L5			L6			L7			V_Mid_ASIS			V_Pelvis_Origin			V_R.Hip_JC			V_L.Hip_JC			V_R.Knee_JC			V_L.Knee_JC			V_R.Ankle_JC			V_L.Ankle_JC			V_Mid_Hip			V_Mid_Shoulder			V_R.Hand			V_L.Hand			V_R.Toe_Offset_Static			V_L.Toe_Offset_Static			V_R.Toe_Offset			V_L.Toe_Offset			
		X1	Y1	Z1	X2	Y2	Z2	X3	Y3	Z3	X4	Y4	Z4	X5	Y5	Z5	X6	Y6	Z6	X7	Y7	Z7	X8	Y8	Z8	X9	Y9	Z9	X10	Y10	Z10	X11	Y11	Z11	X12	Y12	Z12	X13	Y13	Z13	X14	Y14	Z14	X15	Y15	Z15	X16	Y16	Z16	X17	Y17	Z17	X18	Y18	Z18	X19	Y19	Z19	X20	Y20	Z20	X21	Y21	Z21	X22	Y22	Z22	X23	Y23	Z23	X24	Y24	Z24	X25	Y25	Z25	X26	Y26	Z26	X27	Y27	Z27	X28	Y28	Z28	X29	Y29	Z29	X30	Y30	Z30	X31	Y31	Z31	X32	Y32	Z32	X33	Y33	Z33	X34	Y34	Z34	X35	Y35	Z35	X36	Y36	Z36	X37	Y37	Z37	X38	Y38	Z38	X39	Y39	Z39	

213	1.767	564.11432	156.35020	1689.33618	444.65900	158.52454	1617.39539	664.94019	146.44846	1609.86853	608.39905	347.43961	1374.92993	718.25275	65.65759	1236.51941	705.80804	442.80264	1070.40662	675.96332	475.01477	810.23181	552.45129	-58.28417	1383.54077	511.40656	-162.90884	1063.37891	318.91293	-123.68964	899.12939	508.66553	266.31384	912.45416	520.65887	-19.94617	894.84998	739.26611	137.35088	905.15826	372.82761	215.00024	597.70239	389.12549	257.11310	471.73877	357.57181	180.48811	239.45325	375.07690	253.71268	69.51791	444.63147	193.27367	40.87003	233.78288	230.10237	43.07280	547.79865	-3.29460	561.17120	704.96484	-49.49366	435.79965	779.33411	24.83561	309.11938	1027.56580	-11.33333	175.01140	1067.79883	50.32345	217.81125	975.83191	6.84047	45.69624	189.89970	211.44254	44.84435	227.88823	193.69807	46.67900	326.46625	160.25754	54.58591	399.84494	160.20265	39.22115	412.26175	235.84380	39.62801	337.04535	259.74658	35.98386	271.99387	273.53741	36.71943	943.23712	33.35814	34.31020	960.77466	45.95618	46.98912	989.16022	74.82533	123.85149	1037.01160	77.82561	189.11342	1061.72156	10.27429	190.82274	1038.07007	-18.86974	114.94525	1007.69446	-23.40004	59.38008	
214	1.775	551.86462	157.79089	1691.37488	432.62384	160.13042	1619.63403	652.63568	148.32329	1611.97266	595.59399	348.71259	1377.22473	705.11365	67.21266	1238.54297	690.33960	444.37839	1071.81848	658.67145	475.61758	811.70941	539.90070	-56.64354	1386.30859	502.59705	-162.33095	1065.88989	312.40149	-124.56146	897.97260	496.64954	268.70773	914.86804	506.77997	-16.70847	896.71271	726.00739	138.21313	907.05334	362.82245	217.36075	597.29926	379.88052	257.76956	471.22852	353.09866	180.45860	238.36385	374.60034	253.46957	69.34685	445.04080	193.54295	41.20852	233.09975	229.14752	42.10542	527.43091	-4.04415	562.20343	681.73840	-50.05134	434.62122	756.03583	21.74929	310.10803	1011.59283	-12.06350	184.79150	1047.44971	48.97438	230.79686	969.25238	4.81679	51.17682	188.39117	208.02792	42.81024	227.05363	191.88571	45.36547	326.05255	159.59319	54.01015	399.74097	160.02771	39.13043	411.90393	235.93974	39.88503	336.56345	259.60843	35.92427	271.19467	272.76868	36.94213	939.60321	31.07623	33.61015	955.85358	43.70791	50.48548	976.36401	73.06489	132.92194	1019.93091	77.24686	200.05579	1044.68408	9.21938	203.58241	1025.89587	-20.12475	126.46313	999.65686	-24.89779	68.83759	
215	1.783	539.87866	159.59100	1693.62830	419.99875	161.45187	1622.34155	640.46582	150.18449	1614.02930	582.87958	349.91592	1379.79053	692.04138	68.49693	1240.79175	675.47656	445.34970	1073.20386	639.43573	476.11871	813.39832	527.36890	-55.04782	1388.84436	494.26376	-161.34874	1068.60803	306.01581	-125.72601	896.93329	484.05307	271.45142	917.77380	493.50015	-14.13967	898.67670	713.34351	139.40459	908.81818	352.76556	218.47430	596.49042	371.50055	258.51035	471.41583	349.35571	180.60385	237.77496	375.13708	253.84712	68.89034	445.04868	193.49544	41.03337	232.22272	229.02893	41.15057	507.28925	-5.15862	563.87677	657.20679	-50.16137	433.10507	736.40869	21.78836	309.96609	994.36316	-12.89771	194.54886	1025.49890	48.88879	243.25740	961.77557	2.49713	56.23858	187.64682	208.15051	41.03597	226.81268	191.55119	44.35073	325.87646	159.25096	53.43438	399.60355	159.86612	39.06599	411.66702	235.93008	40.09852	336.50424	259.79431	35.82521	270.75134	272.43225	36.91606	934.40106	28.08295	33.88087	947.76038	40.44438	55.34560	961.44592	71.39578	140.30986	999.92126	77.74669	210.82274	1025.62927	8.97651	216.34631	1012.41779	-21.01656	138.50090	990.69781	-26.67954	79.59897	
216	1.792	527.82458	161.26961	1695.96326	407.95557	163.01115	1624.78992	628.16956	151.74428	1616.04297	569.80719	351.14362	1382.09863	679.28644	69.83151	1243.47620	660.01825	447.10522	1074.57166	621.27362	477.18066	815.53174	515.11670	-53.68729	1391.51660	485.36786	-160.92358	1071.01794	300.41418	-126.80048	895.60101	471.63669	273.65918	919.75397	480.35373	-12.03080	900.58740	700.42017	140.36609	910.86096	344.09348	219.54700	595.46875	364.69656	259.70279	470.89758	346.21033	180.79880	237.35274	374.67984	253.72183	68.88381	444.85834	193.30550	41.10059	232.16977	229.46091	40.76494	486.81863	-5.34494	566.07416	632.20160	-49.85944	430.88672	715.37659	22.17638	310.65417	974.63373	-13.03381	203.93013	1001.72156	49.69831	254.92508	952.58264	0.64585	62.22650	187.77588	209.40123	40.11434	226.68546	192.24130	44.10169	325.91397	159.15416	52.85696	399.55420	159.85959	39.04092	411.69382	235.95013	40.13750	336.63672	259.64447	35.86161	271.04608	273.22488	36.49910	928.11041	25.08331	34.16287	937.85406	37.39909	59.63993	944.67004	70.75332	147.00365	978.66248	78.24734	220.61916	1005.00006	9.87751	227.90009	997.97241	-21.40027	150.73195	979.38641	-28.71893	90.11387																																																	899.15051	-34.15049	167.95122	737.69965	152.09277	819.32587	
217	1.800	515.91962	162.88257	1698.59021	395.79031	164.90698	1627.93054	616.06531	153.25623	1618.32080	556.77289	352.66418	1384.71631	666.47668	70.75306	1246.15527	645.31287	448.06177	1076.39172	602.27899	477.77502	817.78082	502.26825	-52.37796	1394.09875	477.63080	-160.45024	1073.45337	295.04309	-128.17477	894.32495	459.47638	275.74219	922.08533	466.84052	-9.64386	902.76050	688.17993	141.18642	912.88281	335.38974	220.33878	594.67603	358.81140	260.75143	470.92349	343.57724	181.20905	237.07588	374.70523	253.77867	68.72105	444.85632	193.33611	41.13271	232.14490	229.39227	40.60499	466.45612	-4.22237	568.83514	606.41962	-49.65528	429.67151	692.87939	22.74768	312.37421	954.76703	-12.86938	213.24629	976.94666	51.40535	265.04166	941.83081	-2.63015	68.99500	187.74672	209.13312	39.79461	226.79439	192.23105	43.93221	326.11655	159.20296	52.72459	399.70621	159.95265	39.02038	411.79263	235.93184	40.10604	336.83926	259.77689	35.71561	271.19815	273.53387	36.27237	919.70520	21.43895	34.18990	926.32068	33.96089	64.16125	926.64264	70.14333	152.93690	955.88959	78.34821	228.10225	982.13171	11.27760	238.92955	980.15143	-20.81511	162.26660	965.85675	-29.76098	100.88834	
218	1.808	503.87726	164.21848	1701.15210	383.71924	166.09300	1630.94043	603.86377	155.06041	1620.30859	543.70135	353.72281	1387.45947	654.05682	72.24342	1249.25806	629.86279	449.84995	1078.46692	582.92749	478.33670	819.97040	490.16745	-51.47674	1396.95581	469.52185	-160.12502	1076.01892	290.38000	-129.73573	893.44305	447.04816	277.90955	924.49719	454.24301	-7.91505	905.44019	675.67749	142.26231	915.04706	327.69742	221.45335	593.40356	352.89914	261.76935	471.19040	341.03128	181.86540	237.29120	374.63974	253.87007	68.63460	445.03580	193.48666	41.16652	232.65034	229.61989	40.26456	446.05539	-2.37873	572.51874	581.09247	-49.13425	429.69116	668.17902	22.77611	314.46194	932.53320	-11.90802	222.25740	950.96924	53.70094	273.56628	927.40662	-6.40303	77.34531	187.60205	208.76457	39.40388	226.87189	192.13193	43.84160	326.21591	159.25949	52.66079	399.77298	160.00169	39.01473	411.87076	235.94466	40.09158	336.96024	260.03391	35.58222	271.07352	273.46008	36.24051	909.04761	10.42276	41.74659	912.28284	29.12290	69.57877	907.28943	69.85551	158.13200	931.84924	80.31728	234.47241	958.30762	13.29076	248.75554	959.95251	-19.94847	172.91232	950.27576	-30.75490	111.25986	
219	1.817	491.86050	165.91011	1703.84424	371.65884	167.54649	1634.03284	591.86487	156.20180	1623.12659	529.98035	354.71756	1390.15662	641.35706	73.86540	1252.21204	614.80450	451.11490	1080.37451	563.37268	478.54391	822.70996	478.10910	-50.40004	1399.74438	461.64691	-159.78210	1078.63306	285.33340	-131.59839	892.24188	435.63583	279.58740	926.42871	441.80545	-6.10679	907.66907	663.81415	143.26613	917.45068	320.26831	222.18289	593.36505	348.53070	262.56119	471.10059	339.46277	182.23996	237.01761	374.67010	253.93788	68.62268	445.07681	193.49294	41.14087	232.73445	229.72290	40.02641	425.64777	-0.05244	576.37921	555.17529	-49.59198	430.24817	644.06433	23.66523	317.00018	909.75037	-10.33360	230.46025	925.87054	57.20921	279.89590	908.88422	-10.97955	87.24337	187.56201	209.00618	39.24323	226.90692	192.24748	43.79056	326.42810	159.39090	52.60936	399.81320	160.06403	39.08441	412.04279	235.93556	40.03787	337.21579	260.16013	35.44340	271.12598	273.76877	35.97168	893.65784	3.46776	50.08232	893.49957	23.35822	76.48803	886.94611	70.48647	162.47055	907.17780	81.97405	239.52847	934.21869	16.22519	257.07803	938.76544	-19.40314	182.37039	931.63373	-32.02429	121.03714	
220	1.825	479.75543	167.45308	1706.71362	359.44861	168.63853	1636.88977	579.46918	157.42757	1625.63110	516.30310	355.83200	1392.95190	629.09302	75.33344	1255.11951	599.77893	452.56482	1082.14807	543.38947	478.90454	825.76251	466.00604	-49.60074	1402.47827	454.22519	-159.61479	1081.72327	281.14429	-132.95979	891.42462	423.79758	280.80881	928.85760	429.65735	-5.77884	910.42554	651.84460	144.35179	919.96088	314.00235	222.04494	592.32074	344.01654	263.55527	470.93405	336.75806	183.26649	236.81627	374.79337	253.98814	68.62799	445.17856	193.51637	41.05533	232.81459	229.94969	39.97134	405.82184	2.10622	580.81085	529.70282	-49.30836	431.76959	619.97003	25.32632	319.97815	886.55188	-8.27771	237.69608	900.83044	61.77678	284.64844	888.23297	-13.70299	94.85022	187.53609	208.93553	39.06126	227.00679	192.30678	43.73387	326.53027	159.53876	52.62647	399.94693	160.23521	39.08147	412.18228	235.92877	39.95009	337.57645	260.47070	35.18594	271.11447	273.98392	35.78345	871.54999	1.87464	54.74225	873.87616	20.72335	81.75292	864.15778	70.21236	165.73615	882.82751	84.41547	243.45099	910.60913	19.39486	263.48438	915.74548	-18.59753	191.02699	910.68518	-34.77098	130.33685	
221	1.833	467.78781	168.58878	1709.38635	346.87607	169.96033	1640.02173	566.88379	158.62422	1628.19812	502.63602	357.12442	1395.64685	617.04840	77.10500	1258.58069	584.10187	454.46051	1084.39709	523.61340	478.98053	828.80365	454.10965	-48.80147	1405.27014	446.56909	-159.49136	1084.65979	277.46674	-134.96893	890.28760	411.23282	281.68097	931.30029	417.98291	-4.87045	912.95178	640.33887	145.46051	922.78442	307.75659	222.85741	592.03168	340.45789	264.96136	470.27542	335.02179	184.19353	236.29771	374.69330	254.16052	68.41884	445.81308	194.14223	41.07873	232.94836	230.04802	39.84637	385.67422	4.84705	584.97687	504.60303	-49.21939	434.27127	595.16913	26.72800	323.42392	861.96600	-6.16881	243.49121	877.20306	64.42464	288.61023	863.72107	-14.89236	100.11986	187.56557	208.86229	38.79278	227.17244	192.36298	43.66231	326.52875	159.78636	52.76733	400.03152	160.28157	39.21526	412.32156	235.93747	39.93287	337.78076	260.67468	34.98833	271.01096	274.13821	35.62913	846.01831	0.44925	59.09712	848.26746	19.70360	86.44550	839.26752	70.80583	169.87033	859.97375	85.97573	246.46915	886.43304	21.69793	268.29251	889.95776	-17.78425	197.63841	884.73334	-35.64879	137.67578	
